Making of EVIL DEAD BY ~~loveislifeforlovers@gmail.com~~NIKHIL 
http://zombie-popcorn.com/EvilDeadMammaMia-774700.jpg

Format                           : AVI
Format/Info                      : Audio Video Interleave
File size                        : 370 MiB
Duration                         : 30mn 27s
Overall bit rate                 : 1 698 Kbps

Video
ID                               : 0
Format                           : MPEG-4 Visual
Format profile                   : Advanced Simple@L5
Format settings, BVOP            : No
Format settings, QPel            : No
Format settings, GMC             : No warppoints
Format settings, Matrix          : Default (MPEG)
Codec ID                         : XVID
Codec ID/Hint                    : XviD
Duration                         : 30mn 27s
Bit rate                         : 1 498 Kbps
Width                            : 720 pixels
Height                           : 480 pixels
Display aspect ratio             : 1.500
Frame rate                       : 25.000 fps
Standard                         : NTSC
Resolution                       : 8 bits
Colorimetry                      : 4:2:0
Scan type                        : Progressive
Bits/(Pixel*Frame)               : 0.173
Stream size                      : 326 MiB (88%)
Writing library                  : XviD 1.1.2 (UTC 2006-11-01)

Audio
ID                               : 1
Format                           : MPEG Audio
Format version                   : Version 1
Format profile                   : Layer 3
Codec ID                         : 55
Codec ID/Hint                    : MP3
Duration                         : 30mn 27s
Bit rate mode                    : Constant
Bit rate                         : 192 Kbps
Channel(s)                       : 2 channels
Sampling rate                    : 44.1 KHz
Stream size                      : 41.8 MiB (11%)
Alignment                        : Split accross interleaves
Interleave, duration             : 80 ms (2.00 video frames)
Writing library                  : LAMELAME_MAJOR_VERSI

SCREENS 
http://3.bp.blogspot.com/_-BaZqeExj_g/S75_EI_ipII/AAAAAAAAAs0/Su3D9gG7Rgk/s1600/EvilDead_08.jpg
http://home.broadpark.no/~paularp/images/Evil_Dead2_035.png
http://blogs.e-rockford.com/movieman/files/2009/03/evildead2.jpg